<svg viewBox="0 0 18 18">
                                            <g id="ACQD68_v1_icons" transform="translate(-32.000000, -253.000000)">
                                                <g id="Group-10" transform="translate(32.000000, 253.000000)">
                                                    <circle id="Oval-Copy-3" fill="#2b2b2b" cx="9" cy="9" r="9"></circle>
                                                    <g id="Group-3" transform="translate(4.500000, 4.000000)">
                                                        <path d="M8.945125,7.7507875 C8.872625,8.1107875 8.760125,8.4045375 8.598875,8.6507875 C8.426375,8.9095375 8.203875,9.1120375 7.917625,9.2695375 C7.525125,9.4857875 7.097625,9.5945375 6.641375,9.5945375 C6.298875,9.5945375 5.938875,9.5332875 5.562625,9.4120375 C4.803875,9.1670375 4.076375,8.7070375 3.527625,8.3320375 C2.997625,7.9707875 2.511375,7.5182875 2.040125,6.9520375 C1.540125,6.4107875 1.157625,5.8682875 0.868875,5.2957875 C0.568875,4.7032875 0.207625,3.9207875 0.065125,3.1370375 C-0.099875,2.2295375 0.051375,1.4507875 0.515125,0.8207875 C0.708875,0.5570375 0.940125,0.3645375 1.218875,0.2270375 C1.482625,0.0995375 1.788875,0.0257875 2.156375,0.0020375 C2.370125,-0.0117125 2.661375,0.0470375 2.828875,0.4082875 C2.963875,0.6995375 3.106375,0.9945375 3.242625,1.2795375 C3.342625,1.4845375 3.443875,1.6957875 3.542625,1.9057875 C3.606375,2.0407875 3.658875,2.1770375 3.700125,2.3095375 C3.780125,2.5732875 3.707625,2.7895375 3.477625,2.9720375 C3.181375,3.2057875 2.891375,3.4357875 2.616375,3.6695375 C2.605125,3.6795375 2.582625,3.6982875 2.568875,3.7120375 C2.572625,3.7257875 2.581375,3.7532875 2.600125,3.7970375 C2.881375,4.4920375 3.225125,5.0620375 3.647625,5.5370375 L3.653875,5.5445375 C4.071375,6.0257875 4.590125,6.4407875 5.241375,6.8120375 C5.282625,6.8370375 5.307625,6.8482875 5.322625,6.8532875 C5.337625,6.8407875 5.358875,6.8232875 5.370125,6.8132875 C5.637625,6.5695375 5.902625,6.3132875 6.175125,6.0507875 C6.385125,5.8470375 6.610125,5.8020375 6.860125,5.9170375 C6.987625,5.9745375 7.113875,6.0457875 7.240125,6.1257875 C7.433875,6.2520375 7.630125,6.3807875 7.821375,6.5057875 C8.086375,6.6795375 8.358875,6.8582875 8.630125,7.0307875 C8.967625,7.2445375 8.987625,7.5395375 8.945125,7.7507875" id="Fill-1" fill="#fff" mask="url(#mask-2)"></path>
                                                    </g>
                                                </g>
                                            </g>
                                        </svg>