<svg width="8" height="6" viewBox="0 0 8 6" fill="none" xmlns="http://www.w3.org/2000/svg">
                                        <path d="M4 4.5C4.25 4.5 4.51562 4.42188 4.73438 4.25L8 1.71875V5.25C8 5.67188 7.65625 6 7.25 6H0.75C0.328125 6 0 5.67188 0 5.25V1.71875L3.25 4.25C3.46875 4.42188 3.73438 4.5 4 4.5ZM0.25 1.28125C0.09375 1.15625 0 0.953125 0 0.75C0 0.34375 0.328125 0 0.75 0H7.25C7.65625 0 8 0.34375 8 0.75C8 0.953125 7.89062 1.15625 7.73438 1.28125L4.42188 3.85938C4.17188 4.04688 3.8125 4.04688 3.5625 3.85938L0.25 1.28125Z" fill="#1A1A1A"></path>
                                        </svg>