<svg x="0px" y="0px" viewBox="-0.5 -0.5 19 19">
                                            <circle id="Oval-Copy-5" fill="#FFFFFF" cx="9" cy="9" r="9"></circle>
                                            <g id="Group-3" class="fillclr" transform="translate(5.000000, 4.000000)">
                                            <path id="Fill-1" d="M3.7,5.1C2.8,5.1,2,4.4,2,3.5s0.7-1.6,1.6-1.6s1.6,0.7,1.6,1.6S4.6,5.1,3.7,5.1 M3.7,0
                                                    C1.6,0,0,1.6,0,3.7c0,0.8,0.6,2.3,1.7,4.2c0.8,1.5,1.7,2.7,1.7,2.7L3.7,11l0.2-0.3c0,0,0.9-1.3,1.7-2.7c1.1-2,1.7-3.4,1.7-4.2
                                                    C7.3,1.6,5.7,0,3.7,0"></path>
                                            </g>
                                        </svg>