<svg width="11px" height="15px" viewBox="0 0 11 15">
                                            <path d="M5.390712,9.10533109 C3.337092,9.110718 1.661472,7.444818 1.65551617,5.390658 C1.649592,3.337038 3.316032,1.660878 5.370192,1.65546217 C7.423812,1.649538 9.099432,3.315978 9.10538783,5.370138 C9.111312,7.423758 7.444872,9.099378 5.390712,9.10533109 L5.390712,9.10533109 Z M5.365332,-0.000182380992 C2.398572,0.007938 -0.008208,2.428758 -0.000128385548,5.394978 C0.003132,6.606198 0.399492,7.748838 1.145772,8.699238 L5.404752,14.126778 L9.633492,8.675478 C10.374372,7.721298 10.764252,6.576498 10.761032,5.365278 C10.752912,2.399058 8.332092,-0.008262 5.365332,-0.000182380992 L5.365332,-0.000182380992 Z M5.798952,7.034958 L4.971132,7.037118 L4.967892,5.795658 L3.725892,5.798898 L3.723732,4.971078 L4.965192,4.967838 L4.961952,3.726378 L5.789772,3.723678 L5.793012,4.965138 L7.034472,4.961898 L7.037172,5.789718 L5.795712,5.792958 L5.798952,7.034958 Z M5.372352,2.48328723 C3.775032,2.487618 2.479032,3.791178 2.48334123,5.388498 C2.487672,6.985818 3.791232,8.281818 5.388552,8.27750877 C6.985872,8.273178 8.281872,6.969618 8.27756277,5.372298 C8.273232,3.774978 6.969672,2.478978 5.372352,2.48328723 L5.372352,2.48328723 Z" id="Fill-1" fill="#FFFFFF" mask="url(#mask-2)"></path>
                                        </svg>