<svg width="9px" height="11px" viewBox="0 0 9 11">
                                <path d="M4.52262639,0.409856824 C2.49463692,0.409856824 0.844754581,2.05973916 0.844754581,4.08770879 C0.844754581,6.6044825 4.13608955,10.2992534 4.27622105,10.4553121 C4.40784351,10.6019097 4.63764728,10.6016518 4.76903172,10.4553121 C4.90916322,10.2992534 8.20049819,6.6044825 8.20049819,4.08770879 C8.20049819,2.05973916 6.55059602,0.409856824 4.52262639,0.409856824 Z M4.52262639,5.93813885 C3.5022945,5.93813885 2.67221616,5.10804068 2.67221616,4.08770879 C2.67221616,3.0673769 3.50231433,2.23729857 4.52262639,2.23729857 C5.54293844,2.23729857 6.37301677,3.06739674 6.37301677,4.08772863 C6.37301677,5.10806052 5.54293844,5.93813885 4.52262639,5.93813885 Z" id="Shape"></path>
                            </svg>